<svg xmlns="http://www.w3.org/2000/svg" xmlns:xlink="http://www.w3.org/1999/xlink" width="500" zoomAndPan="magnify" viewBox="0 0 375 374.999991" height="500" preserveAspectRatio="xMidYMid meet" version="1.0"><defs><g/><clipPath id="a955d2d6be"><path d="M 131 213 L 201.855469 213 L 201.855469 219.546875 L 131 219.546875 Z M 131 213 " clip-rule="nonzero"/></clipPath><clipPath id="351d511e93"><path d="M 96 204 L 201.855469 204 L 201.855469 210 L 96 210 Z M 96 204 " clip-rule="nonzero"/></clipPath><clipPath id="6fd33fe904"><path d="M 86 195 L 201.855469 195 L 201.855469 201 L 86 201 Z M 86 195 " clip-rule="nonzero"/></clipPath><clipPath id="1bd73f7613"><path d="M 111 103 L 213.242188 103 L 213.242188 110 L 111 110 Z M 111 103 " clip-rule="nonzero"/></clipPath><clipPath id="ee3a7769cc"><path d="M 104 94 L 213.242188 94 L 213.242188 101 L 104 101 Z M 104 94 " clip-rule="nonzero"/></clipPath><clipPath id="794c2e7902"><path d="M 139 85.746094 L 213.242188 85.746094 L 213.242188 91 L 139 91 Z M 139 85.746094 " clip-rule="nonzero"/></clipPath><clipPath id="d7b7e053eb"><path d="M 51 131 L 213.242188 131 L 213.242188 136.992188 L 51 136.992188 Z M 51 131 " clip-rule="nonzero"/></clipPath><clipPath id="a0eaf919e6"><path d="M 83 122 L 213.242188 122 L 213.242188 128 L 83 128 Z M 83 122 " clip-rule="nonzero"/></clipPath><clipPath id="c2868ab7d8"><path d="M 94 112 L 213.242188 112 L 213.242188 119 L 94 119 Z M 94 112 " clip-rule="nonzero"/></clipPath><clipPath id="0e04883a32"><path d="M 123 167 L 226.054688 167 L 226.054688 174 L 123 174 Z M 123 167 " clip-rule="nonzero"/></clipPath><clipPath id="38b8159772"><path d="M 117 176 L 226.054688 176 L 226.054688 183 L 117 183 Z M 117 176 " clip-rule="nonzero"/></clipPath><clipPath id="c29e6d7edd"><path d="M 151 186 L 226.054688 186 L 226.054688 191.171875 L 151 191.171875 Z M 151 186 " clip-rule="nonzero"/></clipPath><clipPath id="af6a70a516"><path d="M 64 140 L 226.054688 140 L 226.054688 146 L 64 146 Z M 64 140 " clip-rule="nonzero"/></clipPath><clipPath id="0f98c75c1c"><path d="M 96 149 L 226.054688 149 L 226.054688 155 L 96 155 Z M 96 149 " clip-rule="nonzero"/></clipPath><clipPath id="172662be4d"><path d="M 107 158 L 226.054688 158 L 226.054688 165 L 107 165 Z M 107 158 " clip-rule="nonzero"/></clipPath><clipPath id="1851376fcd"><path d="M 63 51 L 172.644531 51 L 172.644531 58 L 63 58 Z M 63 51 " clip-rule="nonzero"/></clipPath><clipPath id="6e960dd36c"><path d="M 36 42 L 172.644531 42 L 172.644531 49 L 36 49 Z M 36 42 " clip-rule="nonzero"/></clipPath><clipPath id="ade0df087d"><path d="M 8.941406 33 L 172.644531 33 L 172.644531 40 L 8.941406 40 Z M 8.941406 33 " clip-rule="nonzero"/></clipPath><clipPath id="8093696d7c"><path d="M 115 79 L 172.644531 79 L 172.644531 84.800781 L 115 84.800781 Z M 115 79 " clip-rule="nonzero"/></clipPath><clipPath id="33c51a273d"><path d="M 79 70 L 172.644531 70 L 172.644531 76 L 79 76 Z M 79 70 " clip-rule="nonzero"/></clipPath><clipPath id="7d458b9d16"><path d="M 70 61 L 172.644531 61 L 172.644531 67 L 70 67 Z M 70 61 " clip-rule="nonzero"/></clipPath><clipPath id="c3b42a3228"><path d="M 132.40625 25.511719 L 361.164062 25.511719 L 361.164062 250.421875 L 132.40625 250.421875 Z M 132.40625 25.511719 " clip-rule="nonzero"/></clipPath><clipPath id="bd03fca42d"><path d="M 333 43 L 364 43 L 364 74 L 333 74 Z M 333 43 " clip-rule="nonzero"/></clipPath><clipPath id="d2cc8eb539"><path d="M 331.5 45.574219 L 361.4375 41.359375 L 365.648438 71.296875 L 335.714844 75.507812 Z M 331.5 45.574219 " clip-rule="nonzero"/></clipPath><clipPath id="86b21f6804"><path d="M 346.828125 43.734375 L 352.355469 52.242188 C 352.621094 52.648438 353.019531 52.949219 353.484375 53.089844 L 363.183594 56.058594 C 363.316406 56.097656 363.410156 56.210938 363.429688 56.34375 C 363.449219 56.480469 363.386719 56.613281 363.273438 56.6875 L 354.765625 62.214844 C 354.359375 62.480469 354.0625 62.878906 353.917969 63.34375 L 350.949219 73.042969 C 350.910156 73.175781 350.800781 73.269531 350.664062 73.289062 C 350.53125 73.308594 350.398438 73.246094 350.324219 73.132812 L 344.792969 64.625 C 344.527344 64.21875 344.128906 63.921875 343.667969 63.777344 L 333.964844 60.8125 C 333.835938 60.769531 333.738281 60.660156 333.722656 60.523438 C 333.703125 60.390625 333.761719 60.257812 333.875 60.183594 L 342.382812 54.652344 C 342.789062 54.386719 343.089844 53.988281 343.230469 53.527344 L 346.199219 43.824219 C 346.238281 43.695312 346.351562 43.597656 346.484375 43.582031 C 346.621094 43.5625 346.753906 43.621094 346.828125 43.734375 Z M 346.828125 43.734375 " clip-rule="nonzero"/></clipPath><clipPath id="ce3e444c99"><path d="M 338 47 L 360 47 L 360 69 L 338 69 Z M 338 47 " clip-rule="nonzero"/></clipPath><clipPath id="3cf6033dee"><path d="M 336.605469 49.417969 L 357.59375 46.464844 L 360.546875 67.453125 L 339.558594 70.40625 Z M 336.605469 49.417969 " clip-rule="nonzero"/></clipPath><clipPath id="bd21640df3"><path d="M 347.097656 47.941406 L 351.445312 54.625 L 359.070312 56.957031 L 352.382812 61.304688 L 350.050781 68.929688 L 345.707031 62.242188 L 338.082031 59.910156 L 344.765625 55.566406 Z M 347.097656 47.941406 " clip-rule="nonzero"/></clipPath></defs><g clip-path="url(#a955d2d6be)"><path fill="#ffd230" d="M 218.335938 219.039062 L 131.71875 216.453125 L 218.335938 213.867188 C 219.085938 213.84375 219.707031 214.984375 219.71875 216.410156 C 219.730469 217.835938 219.128906 219.015625 218.378906 219.039062 C 218.367188 219.039062 218.347656 219.039062 218.335938 219.039062 Z M 218.335938 219.039062 " fill-opacity="1" fill-rule="nonzero"/></g><g clip-path="url(#351d511e93)"><path fill="#ffd230" d="M 216.910156 209.980469 L 96.355469 207.394531 L 216.910156 204.808594 C 218.101562 204.785156 219.085938 205.921875 219.105469 207.347656 C 219.125 208.777344 218.179688 209.957031 216.988281 209.980469 C 216.964844 209.980469 216.933594 209.980469 216.910156 209.980469 Z M 216.910156 209.980469 " fill-opacity="1" fill-rule="nonzero"/></g><g clip-path="url(#6fd33fe904)"><path fill="#ffd230" d="M 216.738281 200.921875 L 86.714844 198.335938 L 216.738281 195.75 C 218.023438 195.726562 219.082031 196.863281 219.105469 198.289062 C 219.128906 199.71875 218.105469 200.898438 216.820312 200.921875 C 216.796875 200.921875 216.761719 200.921875 216.738281 200.921875 Z M 216.738281 200.921875 " fill-opacity="1" fill-rule="nonzero"/></g><g clip-path="url(#1bd73f7613)"><path fill="#ffd230" d="M 229.21875 109.058594 L 111.023438 106.472656 L 229.21875 103.886719 C 230.246094 103.867188 231.089844 105.003906 231.105469 106.433594 C 231.121094 107.859375 230.304688 109.035156 229.28125 109.058594 C 229.261719 109.058594 229.234375 109.058594 229.21875 109.058594 Z M 229.21875 109.058594 " fill-opacity="1" fill-rule="nonzero"/></g><g clip-path="url(#ee3a7769cc)"><path fill="#ffd230" d="M 228.242188 100 L 104.636719 97.417969 L 228.242188 94.832031 C 229.464844 94.808594 230.472656 95.941406 230.496094 97.371094 C 230.519531 98.796875 229.542969 99.976562 228.324219 100.003906 C 228.296875 100.003906 228.265625 100.003906 228.242188 100 Z M 228.242188 100 " fill-opacity="1" fill-rule="nonzero"/></g><g clip-path="url(#794c2e7902)"><path fill="#ffd230" d="M 228.859375 90.945312 L 139.160156 88.359375 L 228.859375 85.773438 C 229.746094 85.746094 230.476562 86.882812 230.492188 88.3125 C 230.511719 89.738281 229.804688 90.917969 228.917969 90.945312 C 228.902344 90.945312 228.875 90.945312 228.859375 90.945312 Z M 228.859375 90.945312 " fill-opacity="1" fill-rule="nonzero"/></g><g clip-path="url(#d7b7e053eb)"><path fill="#ffd230" d="M 228.289062 136.230469 L 51.722656 133.648438 L 228.289062 131.0625 C 229.820312 131.039062 231.082031 132.179688 231.105469 133.605469 C 231.128906 135.03125 229.910156 136.210938 228.375 136.230469 C 228.351562 136.230469 228.3125 136.230469 228.289062 136.230469 Z M 228.289062 136.230469 " fill-opacity="1" fill-rule="nonzero"/></g><g clip-path="url(#a0eaf919e6)"><path fill="#ffd230" d="M 227.863281 127.175781 L 83.421875 124.589844 L 227.863281 122.003906 C 229.289062 121.980469 230.46875 123.113281 230.492188 124.542969 C 230.519531 125.972656 229.382812 127.148438 227.957031 127.175781 C 227.925781 127.175781 227.890625 127.175781 227.863281 127.175781 Z M 227.863281 127.175781 " fill-opacity="1" fill-rule="nonzero"/></g><g clip-path="url(#c2868ab7d8)"><path fill="#ffd230" d="M 228.070312 118.117188 L 94.964844 115.53125 L 228.070312 112.945312 C 229.386719 112.921875 230.472656 114.054688 230.492188 115.484375 C 230.515625 116.914062 229.46875 118.089844 228.15625 118.117188 C 228.128906 118.117188 228.09375 118.117188 228.070312 118.117188 Z M 228.070312 118.117188 " fill-opacity="1" fill-rule="nonzero"/></g><g clip-path="url(#0e04883a32)"><path fill="#ffd230" d="M 242.03125 167.929688 L 123.835938 170.515625 L 242.03125 173.097656 C 243.058594 173.121094 243.902344 171.984375 243.917969 170.554688 C 243.933594 169.128906 243.113281 167.953125 242.089844 167.929688 C 242.070312 167.929688 242.046875 167.929688 242.03125 167.929688 Z M 242.03125 167.929688 " fill-opacity="1" fill-rule="nonzero"/></g><g clip-path="url(#38b8159772)"><path fill="#ffd230" d="M 241.050781 176.988281 L 117.449219 179.570312 L 241.054688 182.15625 C 242.277344 182.179688 243.285156 181.046875 243.308594 179.617188 C 243.328125 178.191406 242.355469 177.011719 241.136719 176.984375 C 241.109375 176.984375 241.078125 176.984375 241.050781 176.988281 Z M 241.050781 176.988281 " fill-opacity="1" fill-rule="nonzero"/></g><g clip-path="url(#c29e6d7edd)"><path fill="#ffd230" d="M 241.671875 186.042969 L 151.972656 188.628906 L 241.671875 191.214844 C 242.558594 191.238281 243.289062 190.105469 243.304688 188.675781 C 243.320312 187.25 242.613281 186.070312 241.730469 186.042969 C 241.710938 186.042969 241.6875 186.042969 241.671875 186.042969 Z M 241.671875 186.042969 " fill-opacity="1" fill-rule="nonzero"/></g><g clip-path="url(#af6a70a516)"><path fill="#ffd230" d="M 241.101562 140.757812 L 64.535156 143.339844 L 241.101562 145.925781 C 242.628906 145.949219 243.890625 144.808594 243.917969 143.382812 C 243.941406 141.957031 242.71875 140.777344 241.1875 140.757812 C 241.164062 140.757812 241.125 140.757812 241.101562 140.757812 Z M 241.101562 140.757812 " fill-opacity="1" fill-rule="nonzero"/></g><g clip-path="url(#0f98c75c1c)"><path fill="#ffd230" d="M 240.675781 149.8125 L 96.230469 152.398438 L 240.675781 154.984375 C 242.101562 155.007812 243.28125 153.875 243.304688 152.445312 C 243.328125 151.015625 242.195312 149.839844 240.765625 149.8125 C 240.738281 149.8125 240.699219 149.8125 240.675781 149.8125 Z M 240.675781 149.8125 " fill-opacity="1" fill-rule="nonzero"/></g><g clip-path="url(#172662be4d)"><path fill="#ffd230" d="M 240.882812 158.871094 L 107.773438 161.457031 L 240.882812 164.042969 C 242.195312 164.066406 243.28125 162.933594 243.304688 161.503906 C 243.328125 160.074219 242.28125 158.898438 240.964844 158.871094 C 240.941406 158.871094 240.90625 158.871094 240.882812 158.871094 Z M 240.882812 158.871094 " fill-opacity="1" fill-rule="nonzero"/></g><g clip-path="url(#1851376fcd)"><path fill="#ffd230" d="M 201.117188 57.121094 L 63.34375 54.535156 L 201.117188 51.949219 C 202.3125 51.925781 203.296875 53.066406 203.316406 54.492188 C 203.335938 55.921875 202.382812 57.097656 201.1875 57.121094 C 201.167969 57.121094 201.136719 57.121094 201.117188 57.121094 Z M 201.117188 57.121094 " fill-opacity="1" fill-rule="nonzero"/></g><g clip-path="url(#6e960dd36c)"><path fill="#ffd230" d="M 199.734375 48.0625 L 36.742188 45.476562 L 199.734375 42.894531 C 201.34375 42.867188 202.675781 44.003906 202.703125 45.433594 C 202.734375 46.859375 201.449219 48.039062 199.839844 48.0625 C 199.808594 48.0625 199.765625 48.0625 199.734375 48.0625 Z M 199.734375 48.0625 " fill-opacity="1" fill-rule="nonzero"/></g><g clip-path="url(#ade0df087d)"><path fill="#ffd230" d="M 199.238281 39.003906 L 8.941406 36.417969 L 199.238281 33.835938 C 201.121094 33.808594 202.671875 34.945312 202.703125 36.375 C 202.738281 37.800781 201.238281 38.980469 199.359375 39.003906 C 199.324219 39.007812 199.273438 39.003906 199.238281 39.003906 Z M 199.238281 39.003906 " fill-opacity="1" fill-rule="nonzero"/></g><g clip-path="url(#8093696d7c)"><path fill="#ffd230" d="M 201.933594 84.292969 L 115.316406 81.707031 L 201.933594 79.121094 C 202.683594 79.101562 203.304688 80.238281 203.316406 81.667969 C 203.328125 83.09375 202.730469 84.269531 201.976562 84.292969 C 201.964844 84.292969 201.945312 84.292969 201.933594 84.292969 Z M 201.933594 84.292969 " fill-opacity="1" fill-rule="nonzero"/></g><g clip-path="url(#33c51a273d)"><path fill="#ffd230" d="M 200.507812 75.234375 L 79.957031 72.652344 L 200.507812 70.066406 C 201.699219 70.039062 202.683594 71.175781 202.703125 72.605469 C 202.726562 74.03125 201.777344 75.210938 200.585938 75.234375 C 200.5625 75.234375 200.53125 75.234375 200.507812 75.234375 Z M 200.507812 75.234375 " fill-opacity="1" fill-rule="nonzero"/></g><g clip-path="url(#7d458b9d16)"><path fill="#ffd230" d="M 200.335938 66.175781 L 70.3125 63.59375 L 200.335938 61.007812 C 201.621094 60.980469 202.679688 62.117188 202.703125 63.546875 C 202.726562 64.972656 201.703125 66.152344 200.417969 66.175781 C 200.394531 66.179688 200.359375 66.179688 200.335938 66.175781 Z M 200.335938 66.175781 " fill-opacity="1" fill-rule="nonzero"/></g><path fill="#ffd230" d="M 184.417969 218.28125 L 150.261719 220.742188 L 133.449219 248.28125 L 163.210938 235.214844 L 176.15625 249.625 L 222.265625 193.910156 L 296.964844 134.855469 L 310.148438 96.128906 L 360.0625 106.675781 L 321.160156 63.730469 L 270.015625 96.539062 L 234.335938 45.859375 L 134.328125 26.820312 L 206.15625 135.734375 Z M 184.417969 218.28125 " fill-opacity="1" fill-rule="evenodd"/><g clip-path="url(#c3b42a3228)"><path fill="#000000" d="M 293.742188 136.027344 L 207.621094 136.847656 L 222.910156 192.035156 Z M 221.035156 193.675781 L 206.214844 140.070312 L 178.558594 245.058594 Z M 183.539062 217.226562 L 204.925781 135.96875 L 133.449219 27.464844 C 132.804688 26.585938 133.625 25.53125 134.5625 25.707031 L 234.511719 44.746094 L 235.273438 45.214844 L 270.308594 95.074219 L 320.515625 62.851562 C 320.984375 62.558594 321.570312 62.617188 321.921875 63.027344 L 360.882812 105.914062 C 361.585938 106.730469 360.882812 107.960938 359.828125 107.726562 L 310.851562 97.417969 L 298.019531 135.207031 L 297.609375 135.792969 L 223.085938 194.730469 L 177.09375 250.328125 C 176.625 250.914062 175.804688 250.914062 175.394531 250.386719 L 162.976562 236.5625 L 133.976562 249.332031 C 132.980469 249.742188 131.984375 248.6875 132.628906 247.695312 L 149.265625 220.214844 C 149.441406 219.921875 149.792969 219.6875 150.144531 219.628906 Z M 182.953125 219.453125 L 152.605469 221.679688 L 175.628906 247.285156 Z M 207.679688 134.621094 L 294.855469 133.742188 L 269.136719 97.183594 L 234.746094 48.320312 Z M 161.335938 234.804688 L 150.378906 222.617188 L 136.261719 245.820312 Z M 205.804688 133.214844 L 232.929688 46.679688 L 136.730469 28.402344 Z M 271.597656 96.890625 L 296.613281 132.453125 L 319.050781 66.425781 Z M 321.570312 65.898438 L 311.554688 95.308594 L 356.898438 104.859375 Z M 321.570312 65.898438 " fill-opacity="1" fill-rule="evenodd"/></g><g clip-path="url(#bd03fca42d)"><g clip-path="url(#d2cc8eb539)"><g clip-path="url(#86b21f6804)"><path fill="#ffd230" d="M 331.089844 45.265625 L 361.746094 40.949219 L 366.058594 71.605469 L 335.40625 75.917969 Z M 331.089844 45.265625 " fill-opacity="1" fill-rule="nonzero"/></g></g></g><g clip-path="url(#ce3e444c99)"><g clip-path="url(#3cf6033dee)"><g clip-path="url(#bd21640df3)"><path fill="#ffd230" d="M 336.605469 49.417969 L 357.59375 46.464844 L 360.546875 67.453125 L 339.558594 70.40625 Z M 336.605469 49.417969 " fill-opacity="1" fill-rule="nonzero"/></g></g></g><g fill="#f8fafd" fill-opacity="1"><g transform="translate(36.85621, 274.3891)"><g><path d="M 79.46875 -2.84375 C 80.15625 -3.875 79.515625 -4.90625 78.65625 -5.484375 C 75.796875 -7.40625 70.125 -6.90625 66.90625 -6.234375 C 61.546875 -5.03125 58.109375 -2.796875 53.609375 0.296875 C 49.90625 0.328125 46.203125 0.4375 42.484375 0.625 C 44.765625 -0.90625 46.5 -2.34375 48.0625 -4.65625 C 51.359375 -9.578125 49.515625 -13.625 44.921875 -16.71875 C 39.671875 -20.234375 32.921875 -20.59375 26.9375 -19.125 C 20.203125 -17.53125 15.78125 -14.4375 11.828125 -8.78125 C 11.375 -12.296875 12.09375 -15.359375 14.046875 -18.28125 C 16.4375 -21.84375 20.578125 -24.40625 24.71875 -25.390625 C 29.15625 -26.515625 33.140625 -26.046875 37.328125 -24.328125 C 37.515625 -24.265625 38.46875 -23.71875 38.734375 -24.09375 C 38.90625 -24.359375 38.21875 -24.734375 37.796875 -25.03125 C 34.375 -27.3125 27.96875 -27.21875 24.109375 -26.265625 C 19.765625 -25.171875 15.796875 -22.671875 13.265625 -18.875 C 10.65625 -14.984375 10.375 -11.875 11 -7.296875 C 7.9375 0.6875 10.609375 7.109375 17.53125 11.75 C 24.140625 16.171875 32.015625 16.828125 39.328125 13.75 C 45.375 11.1875 52.71875 4.890625 58.171875 0.9375 C 63.546875 0.765625 69.015625 0.125 74.28125 -0.828125 C 75.625 -1.09375 78.59375 -1.53125 79.46875 -2.84375 Z M 78.71875 -3.109375 C 77.34375 -1.046875 62.109375 -0.109375 59.53125 -0.125 C 62.796875 -2.09375 65.890625 -3.78125 69.59375 -4.828125 C 71.546875 -5.40625 76.5 -5.921875 78.25 -4.765625 C 78.78125 -4.40625 79.109375 -3.703125 78.71875 -3.109375 Z M 13.296875 -9.203125 C 19.359375 -18.25 35.109375 -22.203125 44.3125 -16.03125 C 48.484375 -13.25 50.265625 -9.703125 47.25 -5.203125 C 45.296875 -2.28125 42.75 -0.859375 39.734375 0.75 C 37.75 0.890625 35.78125 0.703125 33.765625 0.75 C 33.34375 0.765625 32.640625 0.703125 32.34375 1.125 C 32.265625 1.234375 32.3125 1.40625 32.40625 1.484375 C 32.734375 1.6875 37.0625 1.6875 37.671875 1.71875 C 30.75 3.515625 23.8125 3.09375 17.75 -0.96875 C 15.109375 -2.75 13.59375 -4.609375 12.140625 -7.484375 Z M 52.359375 1.203125 C 46.53125 5.359375 39.921875 10.046875 32.8125 11.546875 C 27.234375 12.75 21.1875 12.15625 16.359375 8.921875 C 11.265625 5.515625 9.453125 -0.40625 11.5625 -6.140625 C 13.515625 -3.1875 14.65625 -1.859375 17.578125 0.09375 C 23.4375 4.015625 29.484375 4.46875 36.171875 2.90625 C 37.78125 2.5 39.921875 1.875 41.046875 1.46875 C 44.0625 1.4375 48.84375 1.203125 52.359375 1.203125 Z M 52.359375 1.203125 "/></g></g></g><g fill="#f8fafd" fill-opacity="1"><g transform="translate(83.797527, 303.823399)"><g><path d="M 1.03125 -9.09375 C -0.75 -8.109375 -3.328125 -6.8125 -4.21875 -4.78125 C -4.84375 -3.359375 -4.3125 -1.828125 -2.890625 -1.203125 C -0.625 -0.203125 4.5 -2.296875 6.671875 -3.03125 C 6.015625 -2.328125 5.328125 -1.546875 4.921875 -0.671875 C 4.328125 0.703125 5.03125 2.140625 6.34375 2.734375 C 9.453125 4.09375 17.25 0.78125 20.09375 -0.671875 C 20.625 -0.21875 21.140625 0.21875 21.71875 0.484375 C 22.984375 1.03125 24.875 0.453125 26.078125 -0.015625 C 26.34375 -0.109375 27.46875 -0.59375 27.578125 -0.84375 C 27.640625 -0.953125 27.578125 -1.125 27.453125 -1.1875 C 26.78125 -1.484375 23.734375 0.578125 21.953125 -0.21875 C 21.484375 -0.421875 21.125 -0.71875 20.859375 -1.109375 C 22.734375 -2.125 25.53125 -3.453125 26.453125 -5.546875 C 26.734375 -6.203125 26.640625 -6.953125 25.9375 -7.28125 C 23.96875 -8.140625 20.796875 -5.96875 20 -4.1875 C 19.53125 -3.109375 19.484375 -2.65625 19.609375 -1.515625 C 17.3125 -0.328125 9.59375 2.953125 7.203125 1.890625 C 6.484375 1.578125 6.375 1.046875 6.6875 0.328125 C 7.265625 -0.984375 10.265625 -2.453125 11.46875 -3.046875 L 22.546875 -8.96875 L 19.15625 -10.125 C 16.203125 -8.59375 1.65625 -0.546875 -1.921875 -2.125 C -2.390625 -2.34375 -2.609375 -2.9375 -2.390625 -3.421875 C -1.84375 -4.671875 2.046875 -6.578125 3.15625 -7.140625 L 13.734375 -12.875 L 10.109375 -14.046875 Z M 25.640625 -5.78125 C 24.96875 -4.28125 21.828125 -2.671875 20.4375 -1.921875 C 20.390625 -2.453125 20.375 -2.890625 20.59375 -3.375 C 21.140625 -4.609375 23.828125 -7.359375 25.390625 -6.671875 C 25.796875 -6.484375 25.796875 -6.125 25.640625 -5.78125 Z M 25.640625 -5.78125 "/></g></g></g><g fill="#f8fafd" fill-opacity="1"><g transform="translate(111.201881, 315.324331)"><g><path d="M 17.5625 -17.515625 C 17.78125 -18.1875 17.421875 -18.921875 16.734375 -19.140625 C 15.671875 -19.5 14.390625 -18.921875 14.03125 -17.859375 C 13.8125 -17.1875 14.1875 -16.4375 14.859375 -16.21875 C 15.90625 -15.859375 17.21875 -16.453125 17.5625 -17.515625 Z M 6.046875 -12.890625 C 3.703125 -11.328125 -3.609375 -7.109375 -4.53125 -4.3125 C -5.03125 -2.828125 -4.078125 -1.359375 -2.65625 -0.875 C 0.6875 0.234375 10.875 -4.625 13.78125 -5.984375 C 14.203125 -6.1875 15.359375 -6.5625 15.515625 -6.984375 C 15.546875 -7.109375 15.53125 -7.328125 15.359375 -7.390625 C 15.109375 -7.46875 0.953125 -0.796875 -2.015625 -1.78125 C -2.578125 -1.96875 -2.78125 -2.375 -2.609375 -2.921875 C -2.109375 -4.40625 3.171875 -7.671875 4.46875 -8.46875 L 12.84375 -13.859375 L 8.9375 -14.734375 Z M 6.046875 -12.890625 "/></g></g></g><g fill="#f8fafd" fill-opacity="1"><g transform="translate(127.593025, 320.598938)"><g><path d="M -14.671875 7.703125 C -11.75 4.671875 -8.5625 1.921875 -5.46875 -0.921875 C 1.09375 0.734375 8.671875 -2.90625 14.03125 -6.3125 C 14.4375 -6.546875 16.796875 -7.90625 16.875 -8.21875 C 16.921875 -8.40625 16.75 -8.515625 16.625 -8.546875 C 15.609375 -8.796875 4.546875 0.140625 -4.59375 -1.78125 C 0.6875 -6.34375 6.03125 -10.765625 11.484375 -15.109375 C 17.375 -16.28125 23.375 -17.84375 28.765625 -20.59375 C 31.234375 -21.828125 37.9375 -25.984375 38.671875 -28.890625 C 38.953125 -30.03125 38.390625 -31.203125 37.25 -31.484375 C 33.53125 -32.4375 24.390625 -26.953125 21.34375 -25.03125 C 11.046875 -18.5625 1.71875 -10.734375 -7.625 -3.015625 C -8.046875 -3.265625 -8.671875 -3.890625 -9.140625 -4 C -9.453125 -4.078125 -10.15625 -3.453125 -10.234375 -3.140625 C -10.359375 -2.640625 -9.140625 -2.0625 -8.921875 -1.9375 C -12.078125 1.234375 -15.265625 4.25 -18.421875 7.421875 Z M 37.875 -29.171875 C 37.140625 -26.265625 32.203125 -23.53125 29.78125 -22.203125 C 24.703125 -19.40625 18.921875 -17.90625 13.328125 -16.4375 C 16.953125 -19.359375 32.109375 -31.890625 36.78125 -30.703125 C 37.46875 -30.53125 38.078125 -29.984375 37.875 -29.171875 Z M 37.875 -29.171875 "/></g></g></g><g fill="#f8fafd" fill-opacity="1"><g transform="translate(145.529202, 324.944811)"><g><path d="M 1.6875 -11.671875 C -0.5625 -9.828125 -4.46875 -6.8125 -5.015625 -3.734375 C -5.34375 -1.953125 -4.296875 -0.765625 -2.5625 -0.453125 C 1.59375 0.28125 9.8125 -5.65625 13.015625 -7.921875 C 13.296875 -8.140625 14.453125 -9 14.5 -9.234375 C 14.53125 -9.4375 14.359375 -9.546875 14.234375 -9.5625 C 13.84375 -9.625 12.671875 -8.578125 12.359375 -8.375 C 10.171875 -6.90625 1.15625 -0.859375 -1.671875 -1.359375 C -2.375 -1.484375 -2.921875 -2.109375 -2.796875 -2.890625 C -2.484375 -4.5625 -0.296875 -6.15625 0.890625 -7.1875 L 14.78125 -19.015625 L 18.828125 -18.28125 L 19.671875 -19.25 L 15.75 -19.953125 L 24.078125 -26.921875 L 20.40625 -27.0625 L 12.546875 -20.515625 L 8.828125 -21.1875 L 7.921875 -20.234375 L 11.4375 -19.609375 Z M 1.6875 -11.671875 "/></g></g></g><g fill="#f8fafd" fill-opacity="1"><g transform="translate(162.650099, 327.895586)"><g/></g></g><g fill="#f8fafd" fill-opacity="1"><g transform="translate(186.319299, 330.912423)"><g><path d="M 61.484375 -50.421875 C 61.40625 -51.65625 60.265625 -52.09375 59.25 -52.03125 C 55.796875 -51.828125 51.59375 -48 49.453125 -45.515625 C 45.921875 -41.296875 44.515625 -37.4375 42.828125 -32.234375 C 39.890625 -29.984375 37.015625 -27.640625 34.171875 -25.25 C 35.0625 -27.859375 35.578125 -30.046875 35.40625 -32.828125 C 35.046875 -38.75 31.140625 -40.84375 25.609375 -40.515625 C 19.296875 -40.125 13.703125 -36.34375 9.84375 -31.546875 C 5.453125 -26.171875 3.796875 -21.0625 4.09375 -14.140625 C 1.609375 -16.671875 0.3125 -19.546875 0.109375 -23.046875 C -0.15625 -27.34375 1.59375 -31.890625 4.25 -35.1875 C 7.109375 -38.75 10.5625 -40.796875 14.953125 -41.96875 C 15.125 -42.046875 16.234375 -42.171875 16.203125 -42.625 C 16.1875 -42.953125 15.40625 -42.84375 14.890625 -42.8125 C 10.78125 -42.5625 5.75 -38.59375 3.25 -35.515625 C 0.46875 -32 -1.15625 -27.609375 -0.890625 -23.046875 C -0.59375 -18.375 1.0625 -15.734375 4.328125 -12.484375 C 6.71875 -4.265625 12.734375 -0.78125 21.0625 -1.28125 C 29.015625 -1.765625 35.671875 -6.03125 39.609375 -12.921875 C 42.875 -18.609375 44.890625 -28.0625 46.84375 -34.5 C 51.03125 -37.90625 54.96875 -41.71875 58.59375 -45.671875 C 59.5 -46.703125 61.578125 -48.859375 61.484375 -50.421875 Z M 60.71875 -50.15625 C 60.859375 -47.703125 49.328125 -37.71875 47.28125 -36.171875 C 48.6875 -39.71875 50.125 -42.9375 52.421875 -46.015625 C 53.625 -47.65625 57.265625 -51.0625 59.359375 -51.1875 C 59.984375 -51.234375 60.671875 -50.875 60.71875 -50.15625 Z M 5 -15.375 C 4.328125 -26.25 14.46875 -38.921875 25.53125 -39.59375 C 30.53125 -39.90625 34.109375 -38.171875 34.4375 -32.765625 C 34.65625 -29.265625 33.5 -26.578125 32.046875 -23.484375 C 30.5625 -22.171875 28.875 -21.140625 27.3125 -19.875 C 27 -19.59375 26.390625 -19.234375 26.421875 -18.71875 C 26.421875 -18.578125 26.5625 -18.453125 26.6875 -18.46875 C 27.078125 -18.484375 30.5 -21.109375 31 -21.46875 C 26.59375 -15.84375 20.796875 -11.984375 13.515625 -11.53125 C 10.34375 -11.34375 8.03125 -11.921875 5.125 -13.296875 Z M 42.390625 -30.78125 C 40.265625 -23.921875 37.84375 -16.203125 33.09375 -10.703125 C 29.375 -6.359375 24.21875 -3.171875 18.421875 -2.8125 C 12.3125 -2.4375 7.265625 -6.0625 5.46875 -11.890625 C 8.8125 -10.734375 10.53125 -10.359375 14.03125 -10.578125 C 21.0625 -11 26.15625 -14.3125 30.53125 -19.609375 C 31.5625 -20.90625 32.890625 -22.703125 33.546875 -23.703125 C 35.921875 -25.546875 39.578125 -28.640625 42.390625 -30.78125 Z M 42.390625 -30.78125 "/></g></g></g><g fill="#f8fafd" fill-opacity="1"><g transform="translate(240.948298, 325.755635)"><g><path d="M -2.8125 -11.46875 C -4.21875 -8.90625 -6.71875 -4.640625 -6.0625 -1.578125 C -5.6875 0.1875 -4.265625 0.90625 -2.546875 0.546875 C 1.59375 -0.34375 6.96875 -8.9375 9.0625 -12.234375 C 9.265625 -12.5625 10 -13.78125 9.9375 -14.03125 C 9.90625 -14.234375 9.703125 -14.234375 9.578125 -14.203125 C 9.1875 -14.125 8.5 -12.71875 8.296875 -12.421875 C 6.828125 -10.234375 0.75 -1.234375 -2.0625 -0.640625 C -2.765625 -0.484375 -3.5 -0.859375 -3.65625 -1.625 C -4.015625 -3.28125 -2.59375 -5.59375 -1.875 -7 L 6.53125 -23.171875 L 10.5625 -24.015625 L 10.984375 -25.234375 L 7.078125 -24.40625 L 12.171875 -34 L 8.71875 -32.75 L 3.90625 -23.734375 L 0.203125 -22.953125 L -0.28125 -21.71875 L 3.21875 -22.46875 Z M -2.8125 -11.46875 "/></g></g></g><g fill="#f8fafd" fill-opacity="1"><g transform="translate(257.866785, 322.036289)"><g><path d="M 12.3125 -15.640625 C 12.25 -15.84375 12.03125 -15.890625 11.84375 -15.84375 C 11.28125 -15.671875 5.453125 -3.171875 2.203125 -2.203125 C 1.703125 -2.0625 1.21875 -2.328125 1.078125 -2.828125 C 0.046875 -6.328125 5.234375 -15.25 6.703125 -17.859375 C 6.828125 -18.09375 7.640625 -19.296875 7.546875 -19.609375 C 7.5 -19.78125 7.109375 -19.953125 6.953125 -20.03125 C 5.84375 -19.375 4.640625 -18.609375 3.453125 -18.265625 C 2.90625 -18.09375 2.28125 -18.140625 1.703125 -18.21875 C 2.109375 -18.953125 2.625 -19.921875 2.375 -20.796875 C 2.1875 -21.421875 1.65625 -22.078125 0.90625 -21.859375 C -0.65625 -21.40625 -0.59375 -19.109375 -0.21875 -17.859375 C -1.140625 -15.6875 -2.15625 -13.578125 -3.3125 -11.515625 C -3.40625 -11.359375 -3.6875 -10.9375 -3.609375 -10.6875 C -3.5625 -10.5 -3.40625 -10.421875 -3.21875 -10.484375 C -2.78125 -10.609375 -0.078125 -16.21875 0.296875 -17 C 1 -16.71875 2.046875 -16.625 2.734375 -16.828125 C 3.359375 -17.015625 3.953125 -17.25 4.53125 -17.625 C 2.390625 -14.5 -3.015625 -6.78125 -1.84375 -2.78125 C -1.328125 -1.03125 -0.015625 -0.265625 1.734375 -0.78125 C 4.921875 -1.71875 9.359375 -9.953125 11.015625 -12.875 C 11.1875 -13.203125 12.40625 -15.328125 12.3125 -15.640625 Z M 12.3125 -15.640625 "/></g></g></g><g fill="#f8fafd" fill-opacity="1"><g transform="translate(278.120667, 315.85988)"><g><path d="M 11.953125 -17.140625 C 11.90625 -17.265625 11.75 -17.34375 11.625 -17.296875 C 11.203125 -17.125 10.625 -15.578125 10.453125 -15.15625 C 8.84375 -11.515625 4.203125 -2.84375 0.265625 -1.296875 C -1.078125 -0.765625 -2.328125 -1.328125 -2.859375 -2.671875 C -3.21875 -3.578125 -3.078125 -4.46875 -2.875 -5.375 C 0.140625 -7.890625 7.421875 -14.09375 5.640625 -18.65625 C 5.140625 -19.921875 3.71875 -20 2.625 -19.578125 C -0.171875 -18.484375 -3.375 -13.796875 -4.375 -11.15625 C -5.359375 -8.671875 -6.390625 -5.40625 -5.359375 -2.796875 C -4.453125 -0.484375 -1.765625 0.6875 0.546875 -0.21875 C 5.21875 -2.046875 10.5 -12.71875 11.953125 -17.140625 Z M 4.359375 -18.359375 C 4.984375 -16.78125 3.8125 -14.234375 3.078125 -12.875 C 1.671875 -10.390625 -0.65625 -8.421875 -2.703125 -6.578125 C -2.125 -9.390625 0 -17.703125 2.96875 -18.859375 C 3.515625 -19.078125 4.125 -18.96875 4.359375 -18.359375 Z M 4.359375 -18.359375 "/></g></g></g><g fill="#f8fafd" fill-opacity="1"><g transform="translate(299.170267, 307.466496)"><g><path d="M 5.140625 -19.3125 C 5.109375 -19.5 5.03125 -19.765625 4.953125 -19.9375 C 4.40625 -20.984375 2.890625 -20.546875 2.078125 -20.125 C -2.90625 -17.5625 -9.109375 -6.140625 -6.328125 -0.75 C -5.34375 1.140625 -3.25 1.671875 -1.390625 0.71875 C 0.8125 -0.421875 2.0625 -4.515625 2.859375 -6.6875 C 2.984375 -5.875 3.140625 -4.84375 3.5 -4.140625 C 4.15625 -2.875 5.5 -2.84375 6.671875 -3.4375 C 10.078125 -5.203125 13.15625 -13.453125 14.28125 -16.90625 C 14.53125 -17.46875 15.6875 -20.484375 15.4375 -20.953125 C 15.359375 -21.125 15.234375 -21.203125 15.0625 -21.109375 C 14.765625 -20.953125 10.078125 -6.453125 7.125 -4.921875 C 6.71875 -4.71875 6.09375 -4.6875 5.828125 -5.203125 C 5.46875 -5.90625 6.03125 -9.1875 6.1875 -10.015625 L 8.8125 -23.40625 L 5.609375 -21.515625 Z M 4.140625 -18.703125 C 5.484375 -16.109375 0.734375 -1.25 -1.75 0.03125 C -2.328125 0.328125 -3.171875 -0.046875 -3.46875 -0.640625 C -4.578125 -2.765625 -2.59375 -9.4375 -1.9375 -11.546875 C -1.21875 -13.734375 0.109375 -18.109375 2.375 -19.28125 C 3 -19.59375 3.8125 -19.34375 4.140625 -18.703125 Z M 4.140625 -18.703125 "/></g></g></g><g fill="#f8fafd" fill-opacity="1"><g transform="translate(325.387082, 293.888018)"><g><path d="M 7.4375 -5.296875 C 7.65625 -12.5 7.671875 -16.75 9.28125 -23.578125 C 9.515625 -24.71875 10.015625 -26.90625 11.03125 -27.625 C 11.453125 -27.9375 12.09375 -27.828125 12.40625 -27.390625 C 13.640625 -25.65625 11.390625 -15 13.28125 -12.34375 C 14.265625 -10.96875 15.75 -11.234375 16.96875 -12.09375 C 20 -14.25 21.46875 -25.21875 22.046875 -28.671875 C 22.09375 -28.953125 22.390625 -30.109375 22.234375 -30.328125 C 22.125 -30.484375 21.890625 -30.484375 21.71875 -30.375 C 21.578125 -30.265625 19.09375 -15.0625 16.8125 -13.4375 C 16.453125 -13.171875 15.921875 -13.25 15.65625 -13.625 C 15.09375 -14.421875 15.15625 -17.125 15.15625 -18 L 15.21875 -25.265625 C 15.1875 -26.5 15.296875 -27.9375 14.53125 -29.015625 C 13.65625 -30.234375 12.25 -30.078125 11.125 -29.28125 C 9.0625 -27.8125 8.140625 -22.921875 7.71875 -20.625 C 7.640625 -21.515625 7.375 -22.765625 6.84375 -23.53125 C 6.046875 -24.625 4.84375 -24.734375 3.78125 -23.984375 C 1.875 -22.609375 0.421875 -17.265625 -0.03125 -15.09375 C -0.09375 -15.859375 -0.609375 -17.25 -1.0625 -17.890625 C -1.78125 -18.890625 -2.953125 -19.171875 -3.953125 -18.46875 C -5.984375 -17.015625 -6.3125 -11.984375 -6.890625 -9.65625 C -6.984375 -9.328125 -7.046875 -8.984375 -6.859375 -8.71875 C -6.78125 -8.625 -6.59375 -8.5625 -6.5 -8.640625 C -5.640625 -9.25 -5.734375 -15.8125 -3.890625 -17.140625 C -3.515625 -17.40625 -2.921875 -17.359375 -2.65625 -16.984375 C -2.09375 -16.203125 -2.15625 -13.109375 -2.203125 -12.1875 L -2.828125 1.765625 L 0.078125 -0.125 C 0.203125 -2.390625 0.09375 -4.703125 0.140625 -6.984375 C 0.25 -11.21875 0.765625 -15.515625 2.15625 -19.53125 C 2.4375 -20.390625 2.984375 -21.640625 3.71875 -22.15625 C 4.203125 -22.5 4.6875 -22.484375 5.03125 -22 C 5.34375 -21.578125 5.4375 -20.671875 5.390625 -20.171875 C 5.234375 -14.53125 4.828125 -8.96875 4.671875 -3.328125 Z M 7.4375 -5.296875 "/></g></g></g></svg>